<svg xmlns="http://www.w3.org/2000/svg" viewBox="0 0 64 64" width="200" height="200">
  <rect width="64" height="64" rx="10" fill="#e0f7fa"></rect>
  <g stroke="#00796b" stroke-width="2" fill="none">
    <rect x="8" y="20" width="48" height="24" rx="3" ry="3" fill="#ffffff"></rect>
    <rect x="12" y="24" width="12" height="8" rx="1" ry="1" fill="#b2dfdb"></rect>
    <rect x="26" y="24" width="12" height="8" rx="1" ry="1" fill="#b2dfdb"></rect>
    <rect x="40" y="24" width="10" height="8" rx="1" ry="1" fill="#b2dfdb"></rect>
    <circle cx="18" cy="46" r="4" fill="#00796b"></circle>
    <circle cx="46" cy="46" r="4" fill="#00796b"></circle>
    <path d="M24 20v-6c0-2 1-3 3-3h10c2 0 3 1 3 3v6" stroke-linecap="round"></path>
    <polyline points="34,14 30,10 34,10 30,6" fill="none" stroke="#ffb300" stroke-width="2"></polyline>
    <line x1="8" y1="38" x2="56" y2="38" stroke="#00796b" stroke-dasharray="2,2"></line>
  </g>
</svg>
